<?xml version="1.0" encoding="UTF-8" standalone="no"?>
<svg
   xmlns:dc="http://purl.org/dc/elements/1.1/"
   xmlns:cc="http://creativecommons.org/ns#"
   xmlns:rdf="http://www.w3.org/1999/02/22-rdf-syntax-ns#"
   xmlns:svg="http://www.w3.org/2000/svg"
   xmlns="http://www.w3.org/2000/svg"
   xmlns:sodipodi="http://sodipodi.sourceforge.net/DTD/sodipodi-0.dtd"
   xmlns:inkscape="http://www.inkscape.org/namespaces/inkscape"
   class="thumb"
   width="439"
   height="536"
   viewBox="0 0 263.4 321.6"
   version="1.1"
   id="svg405"
   sodipodi:docname="withBackgroundNoText.svg"
   inkscape:version="1.0 (4035a4f, 2020-05-01)">
  <metadata
     id="metadata409">
    <rdf:RDF>
      <cc:Work
         rdf:about="">
        <dc:format>image/svg+xml</dc:format>
        <dc:type
           rdf:resource="http://purl.org/dc/dcmitype/StillImage" />
        <dc:title></dc:title>
      </cc:Work>
    </rdf:RDF>
  </metadata>
  <sodipodi:namedview
     inkscape:document-rotation="0"
     pagecolor="#ffffff"
     bordercolor="#666666"
     borderopacity="1"
     objecttolerance="10"
     gridtolerance="10"
     guidetolerance="10"
     inkscape:pageopacity="0"
     inkscape:pageshadow="2"
     inkscape:window-width="1647"
     inkscape:window-height="1035"
     id="namedview407"
     showgrid="false"
     inkscape:zoom="0.50383782"
     inkscape:cx="730.23282"
     inkscape:cy="563.5125"
     inkscape:window-x="0"
     inkscape:window-y="23"
     inkscape:window-maximized="0"
     inkscape:current-layer="svg405" />
  <defs
     id="defs310" />
  <g
     transform="translate(-168,-44.4)"
     id="g499">
    <g
       transform="matrix(-2.7925803,0.04865728,-0.04865728,-2.7925803,444.4312,375.00198)"
       id="g329">
      <svg
         width="77.003998"
         height="53.700001"
         viewBox="11.429 23.96 77.004 53.7"
         version="1.1"
         id="svg327">
        <defs
           id="defs317">
          <linearGradient
             x1="13.267878"
             y1="62.915672"
             x2="67.37957"
             y2="62.915672"
             id="linearGradientSk22bikz74"
             gradientTransform="scale(1.2382537,0.80758892)"
             gradientUnits="userSpaceOnUse">
            <stop
               offset="0%"
               stop-color="#74d14c"
               stop-opacity="0.54"
               id="stop312" />
            <stop
               offset="100%"
               stop-color="#74d14c"
               stop-opacity="0.54"
               id="stop314" />
          </linearGradient>
        </defs>
        <g
           id="g319" />
        <g
           id="g321" />
        <g
           id="g325">
          <path
             fill-rule="evenodd"
             clip-rule="evenodd"
             d="m 73.232,28.96 c -5.631,0 -10.194,4.567 -10.194,10.197 0,8.74 -4.368,13.108 -13.11,13.108 -8.737,0 -13.111,-4.369 -13.111,-13.108 0,-5.63 -4.563,-10.197 -10.194,-10.197 -5.631,0 -10.194,4.567 -10.194,10.197 0,5.631 4.563,10.198 10.194,10.198 8.742,0 13.111,4.369 13.111,13.111 0,5.631 4.563,10.194 10.195,10.194 5.63,0 10.2,-4.563 10.2,-10.194 0,-8.742 4.368,-13.111 13.104,-13.111 5.637,0 10.2,-4.567 10.2,-10.198 0,-5.63 -4.564,-10.197 -10.201,-10.197 z"
             fill="url('#linearGradientSk22bikz74')"
             stroke="none"
             style="fill:url(#linearGradientSk22bikz74)"
             id="path323" />
        </g>
      </svg>
    </g>
    <g
       transform="matrix(2.7930148,0,0,2.7930148,228.0955,163.69536)"
       id="g348">
      <svg
         width="77.003998"
         height="53.700001"
         viewBox="11.429 23.96 77.004 53.7"
         version="1.1"
         id="svg346">
        <defs
           id="defs336">
          <linearGradient
             x1="13.267878"
             y1="62.915672"
             x2="67.37957"
             y2="62.915672"
             id="linearGradientSk22bikz7a"
             gradientTransform="scale(1.2382537,0.80758892)"
             gradientUnits="userSpaceOnUse">
            <stop
               offset="0%"
               stop-color="#61c78c"
               stop-opacity="0.54"
               id="stop331" />
            <stop
               offset="100%"
               stop-color="#61c78c"
               stop-opacity="0.54"
               id="stop333" />
          </linearGradient>
        </defs>
        <g
           id="g338" />
        <g
           id="g340" />
        <g
           id="g344">
          <path
             fill-rule="evenodd"
             clip-rule="evenodd"
             d="m 73.232,28.96 c -5.631,0 -10.194,4.567 -10.194,10.197 0,8.74 -4.368,13.108 -13.11,13.108 -8.737,0 -13.111,-4.369 -13.111,-13.108 0,-5.63 -4.563,-10.197 -10.194,-10.197 -5.631,0 -10.194,4.567 -10.194,10.197 0,5.631 4.563,10.198 10.194,10.198 8.742,0 13.111,4.369 13.111,13.111 0,5.631 4.563,10.194 10.195,10.194 5.63,0 10.2,-4.563 10.2,-10.194 0,-8.742 4.368,-13.111 13.104,-13.111 5.637,0 10.2,-4.567 10.2,-10.198 0,-5.63 -4.564,-10.197 -10.201,-10.197 z"
             fill="url('#linearGradientSk22bikz7a')"
             stroke="none"
             style="fill:url(#linearGradientSk22bikz7a)"
             id="path342" />
        </g>
      </svg>
    </g>
    <g
       transform="matrix(0.09753178,2.791277,-2.791277,0.09753178,303.74888,32.085021)"
       id="g367">
      <svg
         width="77.003998"
         height="53.700001"
         viewBox="11.429 23.96 77.004 53.7"
         version="1.1"
         id="svg365">
        <defs
           id="defs355">
          <linearGradient
             x1="13.267878"
             y1="62.915672"
             x2="67.37957"
             y2="62.915672"
             id="linearGradientSk22bikz7g"
             gradientTransform="scale(1.2382537,0.80758892)"
             gradientUnits="userSpaceOnUse">
            <stop
               offset="0%"
               stop-color="#33b5cc"
               stop-opacity="0.53"
               id="stop350" />
            <stop
               offset="100%"
               stop-color="#33b5cc"
               stop-opacity="0.53"
               id="stop352" />
          </linearGradient>
        </defs>
        <g
           id="g357" />
        <g
           id="g359" />
        <g
           id="g363">
          <path
             fill-rule="evenodd"
             clip-rule="evenodd"
             d="m 73.232,28.96 c -5.631,0 -10.194,4.567 -10.194,10.197 0,8.74 -4.368,13.108 -13.11,13.108 -8.737,0 -13.111,-4.369 -13.111,-13.108 0,-5.63 -4.563,-10.197 -10.194,-10.197 -5.631,0 -10.194,4.567 -10.194,10.197 0,5.631 4.563,10.198 10.194,10.198 8.742,0 13.111,4.369 13.111,13.111 0,5.631 4.563,10.194 10.195,10.194 5.63,0 10.2,-4.563 10.2,-10.194 0,-8.742 4.368,-13.111 13.104,-13.111 5.637,0 10.2,-4.567 10.2,-10.198 0,-5.63 -4.564,-10.197 -10.201,-10.197 z"
             fill="url('#linearGradientSk22bikz7g')"
             stroke="none"
             style="fill:url(#linearGradientSk22bikz7g)"
             id="path361" />
        </g>
      </svg>
    </g>
    <g
       transform="matrix(0,2.7930148,-2.7930148,0,311.89094,162.7624)"
       id="g386">
      <svg
         width="77.003998"
         height="53.700001"
         viewBox="11.429 23.96 77.004 53.7"
         version="1.1"
         id="svg384">
        <defs
           id="defs374">
          <linearGradient
             x1="13.267878"
             y1="62.915672"
             x2="67.37957"
             y2="62.915672"
             id="linearGradientSk22bikz7m"
             gradientTransform="scale(1.2382537,0.80758892)"
             gradientUnits="userSpaceOnUse">
            <stop
               offset="0%"
               stop-color="#5accc2"
               stop-opacity="0.53"
               id="stop369" />
            <stop
               offset="100%"
               stop-color="#5accc2"
               stop-opacity="0.53"
               id="stop371" />
          </linearGradient>
        </defs>
        <g
           id="g376" />
        <g
           id="g378" />
        <g
           id="g382">
          <path
             fill-rule="evenodd"
             clip-rule="evenodd"
             d="m 73.232,28.96 c -5.631,0 -10.194,4.567 -10.194,10.197 0,8.74 -4.368,13.108 -13.11,13.108 -8.737,0 -13.111,-4.369 -13.111,-13.108 0,-5.63 -4.563,-10.197 -10.194,-10.197 -5.631,0 -10.194,4.567 -10.194,10.197 0,5.631 4.563,10.198 10.194,10.198 8.742,0 13.111,4.369 13.111,13.111 0,5.631 4.563,10.194 10.195,10.194 5.63,0 10.2,-4.563 10.2,-10.194 0,-8.742 4.368,-13.111 13.104,-13.111 5.637,0 10.2,-4.567 10.2,-10.198 0,-5.63 -4.564,-10.197 -10.201,-10.197 z"
             fill="url('#linearGradientSk22bikz7m')"
             stroke="none"
             style="fill:url(#linearGradientSk22bikz7m)"
             id="path380" />
        </g>
      </svg>
    </g>
  </g>
</svg>
