<?xml version="1.0" encoding="UTF-8" standalone="no"?>
<svg
   xmlns:dc="http://purl.org/dc/elements/1.1/"
   xmlns:cc="http://creativecommons.org/ns#"
   xmlns:rdf="http://www.w3.org/1999/02/22-rdf-syntax-ns#"
   xmlns:svg="http://www.w3.org/2000/svg"
   xmlns="http://www.w3.org/2000/svg"
   xmlns:sodipodi="http://sodipodi.sourceforge.net/DTD/sodipodi-0.dtd"
   xmlns:inkscape="http://www.inkscape.org/namespaces/inkscape"
   class="thumb"
   width="435"
   height="534"
   viewBox="0 0 261 320.4"
   version="1.1"
   id="svg214"
   sodipodi:docname="noBackgroundNoText copie.svg"
   inkscape:version="1.0 (4035a4f, 2020-05-01)">
  <metadata
     id="metadata218">
    <rdf:RDF>
      <cc:Work
         rdf:about="">
        <dc:format>image/svg+xml</dc:format>
        <dc:type
           rdf:resource="http://purl.org/dc/dcmitype/StillImage" />
        <dc:title></dc:title>
      </cc:Work>
    </rdf:RDF>
  </metadata>
  <sodipodi:namedview
     inkscape:document-rotation="0"
     pagecolor="#ffffff"
     bordercolor="#666666"
     borderopacity="1"
     objecttolerance="10"
     gridtolerance="10"
     guidetolerance="10"
     inkscape:pageopacity="0"
     inkscape:pageshadow="2"
     inkscape:window-width="1695"
     inkscape:window-height="983"
     id="namedview216"
     showgrid="false"
     inkscape:zoom="0.51316815"
     inkscape:cx="500"
     inkscape:cy="500"
     inkscape:window-x="0"
     inkscape:window-y="23"
     inkscape:window-maximized="0"
     inkscape:current-layer="svg214" />
  <defs
     id="defs119" />
  <g
     transform="translate(-169.56587,-45.599089)"
     id="g308">
    <g
       transform="matrix(-2.7925803,0.04865728,-0.04865728,-2.7925803,444.4312,375.00198)"
       id="g138">
      <svg
         width="77.003998"
         height="53.700001"
         viewBox="11.429 23.96 77.004 53.7"
         version="1.1"
         id="svg136">
        <defs
           id="defs126">
          <linearGradient
             x1="13.267878"
             y1="62.915672"
             x2="67.37957"
             y2="62.915672"
             id="linearGradientSk22bikz74"
             gradientTransform="scale(1.2382537,0.80758892)"
             gradientUnits="userSpaceOnUse">
            <stop
               offset="0%"
               stop-color="#74d14c"
               stop-opacity="0.54"
               id="stop121" />
            <stop
               offset="100%"
               stop-color="#74d14c"
               stop-opacity="0.54"
               id="stop123" />
          </linearGradient>
        </defs>
        <g
           id="g128" />
        <g
           id="g130" />
        <g
           id="g134">
          <path
             fill-rule="evenodd"
             clip-rule="evenodd"
             d="m 73.232,28.96 c -5.631,0 -10.194,4.567 -10.194,10.197 0,8.74 -4.368,13.108 -13.11,13.108 -8.737,0 -13.111,-4.369 -13.111,-13.108 0,-5.63 -4.563,-10.197 -10.194,-10.197 -5.631,0 -10.194,4.567 -10.194,10.197 0,5.631 4.563,10.198 10.194,10.198 8.742,0 13.111,4.369 13.111,13.111 0,5.631 4.563,10.194 10.195,10.194 5.63,0 10.2,-4.563 10.2,-10.194 0,-8.742 4.368,-13.111 13.104,-13.111 5.637,0 10.2,-4.567 10.2,-10.198 0,-5.63 -4.564,-10.197 -10.201,-10.197 z"
             fill="url('#linearGradientSk22bikz74')"
             stroke="none"
             style="fill:url(#linearGradientSk22bikz74)"
             id="path132" />
        </g>
      </svg>
    </g>
    <g
       transform="matrix(2.7930148,0,0,2.7930148,228.0955,163.69536)"
       id="g157">
      <svg
         width="77.003998"
         height="53.700001"
         viewBox="11.429 23.96 77.004 53.7"
         version="1.1"
         id="svg155">
        <defs
           id="defs145">
          <linearGradient
             x1="13.267878"
             y1="62.915672"
             x2="67.37957"
             y2="62.915672"
             id="linearGradientSk22bikz7a"
             gradientTransform="scale(1.2382537,0.80758892)"
             gradientUnits="userSpaceOnUse">
            <stop
               offset="0%"
               stop-color="#61c78c"
               stop-opacity="0.54"
               id="stop140" />
            <stop
               offset="100%"
               stop-color="#61c78c"
               stop-opacity="0.54"
               id="stop142" />
          </linearGradient>
        </defs>
        <g
           id="g147" />
        <g
           id="g149" />
        <g
           id="g153">
          <path
             fill-rule="evenodd"
             clip-rule="evenodd"
             d="m 73.232,28.96 c -5.631,0 -10.194,4.567 -10.194,10.197 0,8.74 -4.368,13.108 -13.11,13.108 -8.737,0 -13.111,-4.369 -13.111,-13.108 0,-5.63 -4.563,-10.197 -10.194,-10.197 -5.631,0 -10.194,4.567 -10.194,10.197 0,5.631 4.563,10.198 10.194,10.198 8.742,0 13.111,4.369 13.111,13.111 0,5.631 4.563,10.194 10.195,10.194 5.63,0 10.2,-4.563 10.2,-10.194 0,-8.742 4.368,-13.111 13.104,-13.111 5.637,0 10.2,-4.567 10.2,-10.198 0,-5.63 -4.564,-10.197 -10.201,-10.197 z"
             fill="url('#linearGradientSk22bikz7a')"
             stroke="none"
             style="fill:url(#linearGradientSk22bikz7a)"
             id="path151" />
        </g>
      </svg>
    </g>
    <g
       transform="matrix(0.09753178,2.791277,-2.791277,0.09753178,303.74888,32.085021)"
       id="g176">
      <svg
         width="77.003998"
         height="53.700001"
         viewBox="11.429 23.96 77.004 53.7"
         version="1.1"
         id="svg174">
        <defs
           id="defs164">
          <linearGradient
             x1="13.267878"
             y1="62.915672"
             x2="67.37957"
             y2="62.915672"
             id="linearGradientSk22bikz7g"
             gradientTransform="scale(1.2382537,0.80758892)"
             gradientUnits="userSpaceOnUse">
            <stop
               offset="0%"
               stop-color="#33b5cc"
               stop-opacity="0.53"
               id="stop159" />
            <stop
               offset="100%"
               stop-color="#33b5cc"
               stop-opacity="0.53"
               id="stop161" />
          </linearGradient>
        </defs>
        <g
           id="g166" />
        <g
           id="g168" />
        <g
           id="g172">
          <path
             fill-rule="evenodd"
             clip-rule="evenodd"
             d="m 73.232,28.96 c -5.631,0 -10.194,4.567 -10.194,10.197 0,8.74 -4.368,13.108 -13.11,13.108 -8.737,0 -13.111,-4.369 -13.111,-13.108 0,-5.63 -4.563,-10.197 -10.194,-10.197 -5.631,0 -10.194,4.567 -10.194,10.197 0,5.631 4.563,10.198 10.194,10.198 8.742,0 13.111,4.369 13.111,13.111 0,5.631 4.563,10.194 10.195,10.194 5.63,0 10.2,-4.563 10.2,-10.194 0,-8.742 4.368,-13.111 13.104,-13.111 5.637,0 10.2,-4.567 10.2,-10.198 0,-5.63 -4.564,-10.197 -10.201,-10.197 z"
             fill="url('#linearGradientSk22bikz7g')"
             stroke="none"
             style="fill:url(#linearGradientSk22bikz7g)"
             id="path170" />
        </g>
      </svg>
    </g>
    <g
       transform="matrix(0,2.7930148,-2.7930148,0,311.89094,162.7624)"
       id="g195">
      <svg
         width="77.003998"
         height="53.700001"
         viewBox="11.429 23.96 77.004 53.7"
         version="1.1"
         id="svg193">
        <defs
           id="defs183">
          <linearGradient
             x1="13.267878"
             y1="62.915672"
             x2="67.37957"
             y2="62.915672"
             id="linearGradientSk22bikz7m"
             gradientTransform="scale(1.2382537,0.80758892)"
             gradientUnits="userSpaceOnUse">
            <stop
               offset="0%"
               stop-color="#5accc2"
               stop-opacity="0.53"
               id="stop178" />
            <stop
               offset="100%"
               stop-color="#5accc2"
               stop-opacity="0.53"
               id="stop180" />
          </linearGradient>
        </defs>
        <g
           id="g185" />
        <g
           id="g187" />
        <g
           id="g191">
          <path
             fill-rule="evenodd"
             clip-rule="evenodd"
             d="m 73.232,28.96 c -5.631,0 -10.194,4.567 -10.194,10.197 0,8.74 -4.368,13.108 -13.11,13.108 -8.737,0 -13.111,-4.369 -13.111,-13.108 0,-5.63 -4.563,-10.197 -10.194,-10.197 -5.631,0 -10.194,4.567 -10.194,10.197 0,5.631 4.563,10.198 10.194,10.198 8.742,0 13.111,4.369 13.111,13.111 0,5.631 4.563,10.194 10.195,10.194 5.63,0 10.2,-4.563 10.2,-10.194 0,-8.742 4.368,-13.111 13.104,-13.111 5.637,0 10.2,-4.567 10.2,-10.198 0,-5.63 -4.564,-10.197 -10.201,-10.197 z"
             fill="url('#linearGradientSk22bikz7m')"
             stroke="none"
             style="fill:url(#linearGradientSk22bikz7m)"
             id="path189" />
        </g>
      </svg>
    </g>
  </g>
</svg>
