<svg class="thumb" width="1000" height="1000" viewBox="0,0,600,600" xmlns="http://www.w3.org/2000/svg" xmlns:inkscape="http://www.inkscape.org/namespaces/inkscape" xmlns:sodipodi="http://sodipodi.sourceforge.net/DTD/sodipodi-0.dtd" xmlns:xlink="http://www.w3.org/1999/xlink" xmlns:ns1="http://www.inkscape.org/namespaces/inkscape" xmlns:sketch="http://www.bohemiancoding.com/sketch/ns">
  <defs></defs>
  <g transform="matrix(2.1722,0,0,2.1722,-141.1722,31.3506)">
    <g transform="matrix(-1.2856,0.0224,-0.0224,-1.2856,269.59,158.2043)">
      <svg width="77.00400000000002" height="53.7" viewBox="11.428999999999988,23.959999999999997,77.00400000000002,53.7">
        <defs>
          <linearGradient x1="0" y1="0.5" x2="1" y2="0.5" id="linearGradientSk22bikz74">
            <stop offset="0%" stop-color="#74d14c" stop-opacity="0.54"></stop>
            <stop offset="100%" stop-color="#74d14c" stop-opacity="0.54"></stop>
          </linearGradient>
        </defs>
        <g></g>
        <g></g>
        <g>
          <path fill-rule="evenodd" clip-rule="evenodd" d="M73.232,28.96c-5.631,0-10.194,4.567-10.194,10.197   c0,8.74-4.368,13.108-13.11,13.108c-8.737,0-13.111-4.369-13.111-13.108c0-5.63-4.563-10.197-10.194-10.197   s-10.194,4.567-10.194,10.197c0,5.631,4.563,10.198,10.194,10.198c8.742,0,13.111,4.369,13.111,13.111   c0,5.631,4.563,10.194,10.195,10.194c5.63,0,10.2-4.563,10.2-10.194c0-8.742,4.368-13.111,13.104-13.111   c5.637,0,10.2-4.567,10.2-10.198C83.433,33.527,78.869,28.96,73.232,28.96z" fill="url('#linearGradientSk22bikz74')" stroke="none" style=""></path>
        </g>
      </svg>
    </g>
    <g transform="matrix(1.2858,0,0,1.2858,169.9971,60.9266)">
      <svg width="77.00400000000002" height="53.7" viewBox="11.428999999999988,23.959999999999997,77.00400000000002,53.7">
        <defs>
          <linearGradient x1="0" y1="0.5" x2="1" y2="0.5" id="linearGradientSk22bikz7a">
            <stop offset="0%" stop-color="#61c78c" stop-opacity="0.54"></stop>
            <stop offset="100%" stop-color="#61c78c" stop-opacity="0.54"></stop>
          </linearGradient>
        </defs>
        <g></g>
        <g></g>
        <g>
          <path fill-rule="evenodd" clip-rule="evenodd" d="M73.232,28.96c-5.631,0-10.194,4.567-10.194,10.197   c0,8.74-4.368,13.108-13.11,13.108c-8.737,0-13.111-4.369-13.111-13.108c0-5.63-4.563-10.197-10.194-10.197   s-10.194,4.567-10.194,10.197c0,5.631,4.563,10.198,10.194,10.198c8.742,0,13.111,4.369,13.111,13.111   c0,5.631,4.563,10.194,10.195,10.194c5.63,0,10.2-4.563,10.2-10.194c0-8.742,4.368-13.111,13.104-13.111   c5.637,0,10.2-4.567,10.2-10.198C83.433,33.527,78.869,28.96,73.232,28.96z" fill="url('#linearGradientSk22bikz7a')" stroke="none" style=""></path>
        </g>
      </svg>
    </g>
    <g transform="matrix(0.0449,1.285,-1.285,0.0449,204.8251,0.3381)">
      <svg width="77.00400000000002" height="53.7" viewBox="11.428999999999988,23.959999999999997,77.00400000000002,53.7">
        <defs>
          <linearGradient x1="0" y1="0.5" x2="1" y2="0.5" id="linearGradientSk22bikz7g">
            <stop offset="0%" stop-color="#33b5cc" stop-opacity="0.53"></stop>
            <stop offset="100%" stop-color="#33b5cc" stop-opacity="0.53"></stop>
          </linearGradient>
        </defs>
        <g></g>
        <g></g>
        <g>
          <path fill-rule="evenodd" clip-rule="evenodd" d="M73.232,28.96c-5.631,0-10.194,4.567-10.194,10.197   c0,8.74-4.368,13.108-13.11,13.108c-8.737,0-13.111-4.369-13.111-13.108c0-5.63-4.563-10.197-10.194-10.197   s-10.194,4.567-10.194,10.197c0,5.631,4.563,10.198,10.194,10.198c8.742,0,13.111,4.369,13.111,13.111   c0,5.631,4.563,10.194,10.195,10.194c5.63,0,10.2-4.563,10.2-10.194c0-8.742,4.368-13.111,13.104-13.111   c5.637,0,10.2-4.567,10.2-10.198C83.433,33.527,78.869,28.96,73.232,28.96z" fill="url('#linearGradientSk22bikz7g')" stroke="none" style=""></path>
        </g>
      </svg>
    </g>
    <g transform="matrix(0,1.2858,-1.2858,0,208.5734,60.4971)">
      <svg width="77.00400000000002" height="53.7" viewBox="11.428999999999988,23.959999999999997,77.00400000000002,53.7">
        <defs>
          <linearGradient x1="0" y1="0.5" x2="1" y2="0.5" id="linearGradientSk22bikz7m">
            <stop offset="0%" stop-color="#5accc2" stop-opacity="0.53"></stop>
            <stop offset="100%" stop-color="#5accc2" stop-opacity="0.53"></stop>
          </linearGradient>
        </defs>
        <g></g>
        <g></g>
        <g>
          <path fill-rule="evenodd" clip-rule="evenodd" d="M73.232,28.96c-5.631,0-10.194,4.567-10.194,10.197   c0,8.74-4.368,13.108-13.11,13.108c-8.737,0-13.111-4.369-13.111-13.108c0-5.63-4.563-10.197-10.194-10.197   s-10.194,4.567-10.194,10.197c0,5.631,4.563,10.198,10.194,10.198c8.742,0,13.111,4.369,13.111,13.111   c0,5.631,4.563,10.194,10.195,10.194c5.63,0,10.2-4.563,10.2-10.194c0-8.742,4.368-13.111,13.104-13.111   c5.637,0,10.2-4.567,10.2-10.198C83.433,33.527,78.869,28.96,73.232,28.96z" fill="url('#linearGradientSk22bikz7m')" stroke="none" style=""></path>
        </g>
      </svg>
    </g>
    <g transform="matrix(0.8167,0,0,0.8167,73.6578,137.4495)">
      <svg width="314.306640625" height="196" style="overflow: visible;">
        <defs>
          <linearGradient x1="0" y1="0.5" x2="1" y2="0.5" id="linearGradientSk22bikz7u">
            <stop offset="0%" stop-color="#3a3a3a"></stop>
            <stop offset="100%" stop-color="#3a3a3a"></stop>
          </linearGradient>
        </defs>
        <g transform="matrix(1,0,0,1,0,102)">
          <path d="M 46.29 0L 31.79 0L 18.21-60.79L 17.68-60.79Q 18.6-53.76  18.6-47.9L 18.6-47.9L 18.6 0L 6.3 0L 6.3-71.39L 26.71-71.39L 38.92-15.28L 39.31-15.28L 51.42-71.39L 72.12-71.39L 72.12 0L 59.52 0L 59.52-48.39Q 59.52-54.39  60.21-60.69L 60.21-60.69L 59.81-60.69L 46.29 0ZM 120.11796875 0L 110.59796875 0L 108.00796875-7.42L 107.71796875-7.42Q 104.83796875-2.64  101.75796875-0.83Q 98.67796875 0.98  93.99796875 0.98L 93.99796875 0.98Q 87.98796875 0.98  84.54796875-3.52Q 81.10796875-8.01  81.10796875-16.02L 81.10796875-16.02Q 81.10796875-24.61  85.81796875-28.78Q 90.52796875-32.96  99.89796875-33.4L 99.89796875-33.4L 107.12796875000001-33.69L 107.12796875000001-37.6Q 107.12796875000001-45.21  100.53796875-45.21L 100.53796875-45.21Q 95.65796875-45.21  89.30796875-41.41L 89.30796875-41.41L 84.81796875-50.39Q 92.91796875-55.52  102.43796875-55.52L 102.43796875-55.52Q 111.08796875-55.52  115.59796875-50.56Q 120.11796875-45.61  120.11796875-36.52L 120.11796875-36.52L 120.11796875 0ZM 99.31796875-9.18L 99.31796875-9.18Q 102.87796875000001-9.18  105.00796875-12.38Q 107.12796875000001-15.58  107.12796875000001-20.9L 107.12796875000001-20.9L 107.12796875000001-25.49L 103.12796875000001-25.29Q 98.67796875-25.05  96.60796875-22.75Q 94.52796875-20.46  94.52796875-15.92L 94.52796875-15.92Q 94.52796875-9.18  99.31796875-9.18ZM 148.58765625 0.98L 148.58765625 0.98Q 138.86765625 0.98  133.78765625-6.1Q 128.70765625-13.18  128.70765625-26.9L 128.70765625-26.9Q 128.70765625-41.26  133.51765625-48.34Q 138.32765625-55.42  148.38765625-55.42L 148.38765625-55.42Q 151.41765625-55.42  154.73765625-54.54Q 158.05765625-53.66  160.69765625-52L 160.69765625-52L 156.97765625-41.89Q 152.92765624999998-44.29  149.80765625-44.29L 149.80765625-44.29Q 145.65765625-44.29  143.82765625-39.97Q 141.98765625-35.64  141.98765625-27L 141.98765625-27Q 141.98765625-18.55  143.79765625-14.38Q 145.60765625-10.21  149.70765625-10.21L 149.70765625-10.21Q 154.58765625-10.21  159.90765625-13.62L 159.90765625-13.62L 159.90765625-2.2Q 154.78765625 0.98  148.58765625 0.98ZM 213.91703125-36.38L 213.91703125-36.38Q 213.91703125-18.7  206.71703125-9.35Q 199.50703125 0  185.98703125 0L 185.98703125 0L 168.50703125 0L 168.50703125-71.39L 187.59703125-71.39Q 200.04703125-71.39  206.98703125-62.18Q 213.91703125-52.98  213.91703125-36.38ZM 200.29703125-35.99L 200.29703125-35.99Q 200.29703125-59.91  187.10703125-59.91L 187.10703125-59.91L 181.78703124999998-59.91L 181.78703124999998-11.62L 186.08703125-11.62Q 193.35703125-11.62  196.82703125-17.7Q 200.29703125-23.78  200.29703125-35.99ZM 259.717578125 0L 250.19757812499998 0L 247.60757812499997-7.42L 247.31757812499998-7.42Q 244.43757812499996-2.64  241.35757812499997-0.83Q 238.27757812499996 0.98  233.59757812499998 0.98L 233.59757812499998 0.98Q 227.58757812499996 0.98  224.14757812499997-3.52Q 220.70757812499997-8.01  220.70757812499997-16.02L 220.70757812499997-16.02Q 220.70757812499997-24.61  225.41757812499998-28.78Q 230.12757812499996-32.96  239.49757812499996-33.4L 239.49757812499996-33.4L 246.72757812499998-33.69L 246.72757812499998-37.6Q 246.72757812499998-45.21  240.13757812499998-45.21L 240.13757812499998-45.21Q 235.25757812499998-45.21  228.907578125-41.41L 228.907578125-41.41L 224.41757812499998-50.39Q 232.51757812499997-55.52  242.03757812499998-55.52L 242.03757812499998-55.52Q 250.68757812499996-55.52  255.19757812499998-50.56Q 259.717578125-45.61  259.717578125-36.52L 259.717578125-36.52L 259.717578125 0ZM 238.91757812499998-9.18L 238.91757812499998-9.18Q 242.47757812499998-9.18  244.60757812499997-12.38Q 246.72757812499998-15.58  246.72757812499998-20.9L 246.72757812499998-20.9L 246.72757812499998-25.49L 242.72757812499998-25.29Q 238.27757812499996-25.05  236.20757812499997-22.75Q 234.12757812499996-20.46  234.12757812499996-15.92L 234.12757812499996-15.92Q 234.12757812499996-9.18  238.91757812499998-9.18ZM 294.487265625 0.98L 294.487265625 0.98Q 290.967265625 0.98  288.257265625-0.61Q 285.547265625-2.2  283.207265625-6.2L 283.207265625-6.2L 282.517265625-6.2Q 283.297265625 0.44  283.297265625 1.81L 283.297265625 1.81L 283.297265625 24.02L 270.217265625 24.02L 270.217265625-54.39L 280.277265625-54.39L 282.517265625-47.31L 283.107265625-47.31Q 287.157265625-55.42  294.877265625-55.42L 294.877265625-55.42Q 302.297265625-55.42  306.497265625-48.07Q 310.697265625-40.72  310.697265625-27.29L 310.697265625-27.29Q 310.697265625-14.06  306.347265625-6.54Q 301.997265625 0.98  294.487265625 0.98ZM 290.477265625-44.38L 290.477265625-44.38Q 286.667265625-44.38  284.987265625-40.84Q 283.297265625-37.3  283.207265625-29.1L 283.207265625-29.1L 283.207265625-27.39Q 283.207265625-18.41  284.907265625-14.31Q 286.617265625-10.21  290.577265625-10.21L 290.577265625-10.21Q 297.407265625-10.21  297.407265625-27.49L 297.407265625-27.49Q 297.407265625-35.99  295.727265625-40.19Q 294.047265625-44.38  290.477265625-44.38Z" data-textpath="MacDap" data-text-anchor="middle" data-font-size="100" data-letterspacing="0" data-side="left" data-offset="0.5" data-dx="0" data-dy="0" data-xmlspace="preserve" data-href="" data-font="Open Sans Condensed" data-font-src="/Content/clientfonts/opensanscondensed-bold.woff" data-font-scale="contain" transform="translate(0,0)" data-x="0" data-y="0" fill="url('#linearGradientSk22bikz7u')"></path>
        </g>
      </svg>
    </g>
  </g>
</svg>